<mxfile host="65bd71144e">
    <diagram id="5XGNh67a9LUnxblF42h-" name="Page-1">
        <mxGraphModel dx="1333" dy="740" grid="1" gridSize="10" guides="1" tooltips="1" connect="1" arrows="1" fold="1" page="1" pageScale="1" pageWidth="827" pageHeight="1169" background="#ffffff" math="0" shadow="0">
            <root>
                <mxCell id="0"/>
                <mxCell id="1" parent="0"/>
                <mxCell id="SywRKKQHL0628V95QliU-1" value="" style="rounded=0;whiteSpace=wrap;html=1;" parent="1" vertex="1">
                    <mxGeometry x="40" y="120" width="720" height="400" as="geometry"/>
                </mxCell>
                <mxCell id="SywRKKQHL0628V95QliU-2" value="" style="rounded=0;whiteSpace=wrap;html=1;fillColor=#dae8fc;strokeColor=#6c8ebf;direction=west;" parent="1" vertex="1">
                    <mxGeometry x="40" y="120" width="720" height="40" as="geometry"/>
                </mxCell>
            </root>
        </mxGraphModel>
    </diagram>
</mxfile>